<svg width="124" height="124" viewBox="0 0 124 124" fill="none" xmlns="http://www.w3.org/2000/svg">
<g clip-path="url(#clip0_6_207)">
<rect width="124" height="124" rx="7.60533" fill="#1D2125"/>
<g filter="url(#filter0_d_6_207)">
<rect x="-0.000244141" y="-0.000427246" width="124" height="124" fill="white"/>
</g>
<circle opacity="0.67" cx="41.7997" cy="68.2911" r="19.2736" fill="#2B59FF"/>
<circle opacity="0.77" cx="63.2967" cy="84.9705" r="13.8992" fill="#FFC947"/>
<circle opacity="0.9" cx="73.1198" cy="53.6504" r="28.3545" fill="#45C646"/>
<path d="M62.1587 52.6726C61.6815 52.4712 61.3334 52.1954 61.1145 51.8452C60.9 51.4906 60.7927 51.1031 60.7927 50.6828C60.7927 49.9648 61.0423 49.3716 61.5414 48.9032C62.0448 48.4347 62.7584 48.2005 63.6822 48.2005C64.5972 48.2005 65.3064 48.4347 65.8099 48.9032C66.3177 49.3716 66.5717 49.9648 66.5717 50.6828C66.5717 51.1294 66.4556 51.5278 66.2236 51.878C65.9916 52.2239 65.6654 52.4887 65.2451 52.6726C65.7792 52.8871 66.1842 53.2001 66.46 53.6117C66.7402 54.0232 66.8803 54.4982 66.8803 55.0367C66.8803 55.9254 66.5957 56.6478 66.0266 57.2038C65.4618 57.7598 64.7088 58.0378 63.7676 58.0378C62.892 58.0378 62.163 57.808 61.5808 57.3483C60.8934 56.8054 60.5498 56.0612 60.5498 55.1155C60.5498 54.5945 60.6789 54.1173 60.9372 53.6839C61.1955 53.2461 61.6027 52.909 62.1587 52.6726ZM62.5395 50.8142C62.5395 51.1819 62.6424 51.4687 62.8482 51.6744C63.0583 51.8802 63.3363 51.9831 63.6822 51.9831C64.0324 51.9831 64.3126 51.8802 64.5228 51.6744C64.7329 51.4643 64.838 51.1753 64.838 50.8076C64.838 50.4617 64.7329 50.1859 64.5228 49.9802C64.317 49.77 64.0434 49.6649 63.7019 49.6649C63.3473 49.6649 63.0649 49.77 62.8548 49.9802C62.6446 50.1903 62.5395 50.4683 62.5395 50.8142ZM62.3688 54.9382C62.3688 55.446 62.498 55.8423 62.7563 56.1268C63.0189 56.4114 63.3451 56.5537 63.7347 56.5537C64.1156 56.5537 64.4308 56.418 64.6804 56.1465C64.9299 55.8707 65.0547 55.4745 65.0547 54.9579C65.0547 54.507 64.9277 54.1458 64.6738 53.8744C64.4199 53.5985 64.0981 53.4606 63.7085 53.4606C63.2575 53.4606 62.9204 53.6161 62.6971 53.9269C62.4783 54.2377 62.3688 54.5748 62.3688 54.9382ZM68.1018 55.6409L69.888 55.4439C69.9317 55.8072 70.0456 56.0765 70.2294 56.2516C70.4133 56.4267 70.6563 56.5143 70.9584 56.5143C71.3393 56.5143 71.6632 56.3392 71.9303 55.9889C72.1973 55.6387 72.3681 54.9119 72.4425 53.8087C71.9784 54.3472 71.3984 54.6164 70.7023 54.6164C69.9449 54.6164 69.2904 54.3253 68.7387 53.743C68.1915 53.1564 67.9179 52.3946 67.9179 51.4577C67.9179 50.4814 68.2068 49.6956 68.7847 49.1002C69.367 48.5004 70.1069 48.2005 71.0043 48.2005C71.9806 48.2005 72.7818 48.5792 73.4079 49.3366C74.0339 50.0896 74.3469 51.3308 74.3469 53.0601C74.3469 54.82 74.0208 56.0896 73.3685 56.8689C72.7161 57.6482 71.8668 58.0378 70.8205 58.0378C70.0675 58.0378 69.4589 57.8386 68.9949 57.4402C68.5308 57.0374 68.2331 56.4377 68.1018 55.6409ZM72.2783 51.6088C72.2783 51.0134 72.1404 50.5515 71.8646 50.2231C71.5932 49.8948 71.278 49.7306 70.919 49.7306C70.5775 49.7306 70.2929 49.8663 70.0653 50.1378C69.842 50.4048 69.7304 50.8448 69.7304 51.4577C69.7304 52.0794 69.8529 52.5369 70.0981 52.8302C70.3433 53.1192 70.6497 53.2636 71.0175 53.2636C71.3721 53.2636 71.6698 53.1235 71.9106 52.8433C72.1558 52.5632 72.2783 52.1516 72.2783 51.6088ZM75.9427 57.8671V56.0218H77.788V57.8671H75.9427ZM79.2918 50.0852V48.3712H85.6027V49.7109C85.0817 50.2231 84.552 50.9586 84.0135 51.9174C83.475 52.8762 83.0635 53.8962 82.7789 54.9776C82.4987 56.0546 82.3608 57.0177 82.3652 57.8671H80.5855C80.6162 56.5362 80.8898 55.179 81.4064 53.7956C81.9274 52.4121 82.6213 51.1753 83.4881 50.0852H79.2918Z" fill="white"/>
<path d="M41.4084 69.8517V70.8429H37.6676C37.7082 70.4682 37.8297 70.1137 38.0322 69.7795C38.2348 69.4428 38.6348 68.9972 39.2323 68.4427C39.7134 67.9946 40.0083 67.6908 40.1172 67.5313C40.264 67.311 40.3375 67.0932 40.3375 66.878C40.3375 66.64 40.2729 66.4578 40.1438 66.3312C40.0172 66.202 39.8412 66.1375 39.6159 66.1375C39.3931 66.1375 39.2159 66.2046 39.0842 66.3388C38.9526 66.4729 38.8766 66.6957 38.8563 67.0072L37.793 66.9008C37.8563 66.3134 38.055 65.8919 38.3892 65.6362C38.7234 65.3805 39.1412 65.2526 39.6425 65.2526C40.1919 65.2526 40.6236 65.4007 40.9375 65.6969C41.2515 65.9932 41.4084 66.3615 41.4084 66.8021C41.4084 67.0527 41.3629 67.292 41.2717 67.5199C41.1831 67.7452 41.0413 67.9819 40.8464 68.23C40.7172 68.3946 40.4843 68.6313 40.1476 68.9402C39.8108 69.2491 39.5969 69.4542 39.5058 69.5555C39.4171 69.6567 39.345 69.7555 39.2893 69.8517H41.4084ZM42.0958 69.3656L43.1288 69.2402C43.1617 69.5036 43.2504 69.7048 43.3947 69.8441C43.539 69.9833 43.7137 70.053 43.9188 70.053C44.139 70.053 44.3239 69.9694 44.4732 69.8023C44.6251 69.6352 44.7011 69.4099 44.7011 69.1263C44.7011 68.8579 44.6289 68.6453 44.4846 68.4883C44.3403 68.3313 44.1643 68.2528 43.9567 68.2528C43.82 68.2528 43.6567 68.2794 43.4668 68.3326L43.5846 67.4629C43.8732 67.4705 44.0935 67.4085 44.2454 67.2768C44.3973 67.1426 44.4732 66.9654 44.4732 66.7451C44.4732 66.5578 44.4175 66.4084 44.3061 66.297C44.1947 66.1856 44.0466 66.1299 43.8618 66.1299C43.6795 66.1299 43.5238 66.1932 43.3947 66.3198C43.2655 66.4464 43.1871 66.6312 43.1592 66.8742L42.1756 66.7071C42.2439 66.3704 42.3465 66.102 42.4832 65.902C42.6225 65.6995 42.8149 65.5412 43.0605 65.4273C43.3086 65.3108 43.5858 65.2526 43.8922 65.2526C44.4163 65.2526 44.8365 65.4197 45.153 65.7539C45.4138 66.0273 45.5442 66.3362 45.5442 66.6806C45.5442 67.1692 45.2771 67.5591 44.7429 67.8503C45.0619 67.9186 45.3163 68.0718 45.5062 68.3098C45.6986 68.5478 45.7948 68.8351 45.7948 69.1719C45.7948 69.6605 45.6164 70.077 45.2594 70.4213C44.9024 70.7657 44.458 70.9378 43.9264 70.9378C43.4225 70.9378 43.0048 70.7935 42.6731 70.5049C42.3414 70.2137 42.149 69.834 42.0958 69.3656Z" fill="white"/>
<path d="M62.0326 87.5224H60.9655V83.5006C60.5756 83.8652 60.116 84.1348 59.5869 84.3095V83.3411C59.8654 83.2499 60.1679 83.0778 60.4945 82.8246C60.8212 82.5689 61.0452 82.2714 61.1667 81.9321H62.0326V87.5224ZM67.2356 86.5312V87.5224H63.4948C63.5353 87.1477 63.6568 86.7932 63.8594 86.459C64.0619 86.1223 64.4619 85.6767 65.0594 85.1222C65.5405 84.6741 65.8355 84.3703 65.9443 84.2108C66.0912 83.9905 66.1646 83.7727 66.1646 83.5575C66.1646 83.3195 66.1 83.1373 65.9709 83.0107C65.8443 82.8815 65.6684 82.817 65.443 82.817C65.2202 82.817 65.043 82.8841 64.9113 83.0183C64.7797 83.1524 64.7037 83.3752 64.6835 83.6867L63.6201 83.5803C63.6834 82.9929 63.8821 82.5714 64.2163 82.3157C64.5505 82.06 64.9683 81.9321 65.4696 81.9321C66.019 81.9321 66.4507 82.0802 66.7646 82.3764C67.0786 82.6727 67.2356 83.041 67.2356 83.4816C67.2356 83.7322 67.19 83.9715 67.0988 84.1994C67.0102 84.4247 66.8684 84.6614 66.6735 84.9095C66.5444 85.0741 66.3114 85.3108 65.9747 85.6197C65.638 85.9286 65.424 86.1337 65.3329 86.235C65.2443 86.3362 65.1721 86.435 65.1164 86.5312H67.2356Z" fill="white"/>
<path opacity="0.5" d="M10.6124 20.7265L11.8082 24.1172H11.8554L13.0512 20.7265H13.5626L12.0836 24.7545H11.5801L10.1011 20.7265H10.6124ZM14.127 24.7545V21.7335H14.5912V24.7545H14.127ZM14.363 21.23C14.2726 21.23 14.1946 21.1992 14.129 21.1376C14.0648 21.076 14.0326 21.0019 14.0326 20.9153C14.0326 20.8288 14.0648 20.7547 14.129 20.6931C14.1946 20.6315 14.2726 20.6007 14.363 20.6007C14.4535 20.6007 14.5309 20.6315 14.5951 20.6931C14.6607 20.7547 14.6935 20.8288 14.6935 20.9153C14.6935 21.0019 14.6607 21.076 14.5951 21.1376C14.5309 21.1992 14.4535 21.23 14.363 21.23ZM17.9116 21.7335L16.7945 24.7545H16.3224L15.2053 21.7335H15.7088L16.5427 24.1408H16.5742L17.4081 21.7335H17.9116ZM19.6826 24.8174C19.3916 24.8174 19.1405 24.7531 18.9294 24.6246C18.7196 24.4948 18.5577 24.3139 18.4436 24.0818C18.3308 23.8484 18.2744 23.577 18.2744 23.2676C18.2744 22.9581 18.3308 22.6854 18.4436 22.4494C18.5577 22.2121 18.7163 22.0272 18.9195 21.8948C19.1241 21.761 19.3627 21.6942 19.6354 21.6942C19.7928 21.6942 19.9482 21.7204 20.1016 21.7728C20.255 21.8253 20.3946 21.9105 20.5205 22.0285C20.6464 22.1452 20.7467 22.2999 20.8214 22.4927C20.8961 22.6854 20.9335 22.9227 20.9335 23.2046V23.4013H18.6049V23.0001H20.4615C20.4615 22.8297 20.4274 22.6776 20.3592 22.5438C20.2923 22.4101 20.1966 22.3045 20.0721 22.2272C19.9488 22.1498 19.8033 22.1111 19.6354 22.1111C19.4506 22.1111 19.2906 22.157 19.1555 22.2488C19.0218 22.3393 18.9189 22.4573 18.8468 22.6028C18.7747 22.7484 18.7386 22.9044 18.7386 23.0709V23.3384C18.7386 23.5665 18.7779 23.7599 18.8566 23.9186C18.9366 24.0759 19.0474 24.1959 19.189 24.2785C19.3306 24.3598 19.4951 24.4004 19.6826 24.4004C19.8046 24.4004 19.9147 24.3834 20.0131 24.3493C20.1127 24.3139 20.1986 24.2615 20.2707 24.192C20.3428 24.1212 20.3985 24.0333 20.4379 23.9284L20.8863 24.0543C20.8391 24.2064 20.7598 24.3401 20.6483 24.4555C20.5369 24.5696 20.3992 24.6587 20.2353 24.723C20.0714 24.7859 19.8872 24.8174 19.6826 24.8174ZM21.6396 24.7545V21.7335H22.088V22.1898H22.1195C22.1745 22.0403 22.2742 21.919 22.4184 21.826C22.5626 21.7329 22.7252 21.6863 22.9062 21.6863C22.9402 21.6863 22.9829 21.687 23.034 21.6883C23.0851 21.6896 23.1238 21.6916 23.15 21.6942V22.1662C23.1343 22.1623 23.0982 22.1564 23.0419 22.1485C22.9868 22.1393 22.9284 22.1347 22.8668 22.1347C22.72 22.1347 22.5889 22.1655 22.4735 22.2272C22.3594 22.2875 22.2689 22.3714 22.2021 22.4789C22.1365 22.5851 22.1037 22.7064 22.1037 22.8428V24.7545H21.6396ZM23.7002 24.7545V21.7335H24.1487V22.1898H24.1801C24.2352 22.0403 24.3348 21.919 24.4791 21.826C24.6233 21.7329 24.7859 21.6863 24.9668 21.6863C25.0009 21.6863 25.0435 21.687 25.0947 21.6883C25.1458 21.6896 25.1845 21.6916 25.2107 21.6942V22.1662C25.195 22.1623 25.1589 22.1564 25.1025 22.1485C25.0475 22.1393 24.9891 22.1347 24.9275 22.1347C24.7806 22.1347 24.6495 22.1655 24.5341 22.2272C24.4201 22.2875 24.3296 22.3714 24.2627 22.4789C24.1972 22.5851 24.1644 22.7064 24.1644 22.8428V24.7545H23.7002ZM26.6499 24.8253C26.4585 24.8253 26.2847 24.7892 26.1287 24.7171C25.9727 24.6437 25.8488 24.5381 25.757 24.4004C25.6652 24.2615 25.6193 24.0936 25.6193 23.8969C25.6193 23.7239 25.6534 23.5836 25.7216 23.4761C25.7898 23.3672 25.8809 23.282 25.995 23.2204C26.109 23.1588 26.2349 23.1129 26.3726 23.0827C26.5116 23.0512 26.6512 23.0263 26.7915 23.008C26.9751 22.9844 27.1239 22.9667 27.2379 22.9549C27.3533 22.9418 27.4372 22.9201 27.4897 22.89C27.5434 22.8598 27.5703 22.8074 27.5703 22.7326V22.7169C27.5703 22.5228 27.5172 22.3721 27.411 22.2645C27.3061 22.157 27.1468 22.1033 26.9331 22.1033C26.7115 22.1033 26.5378 22.1518 26.4119 22.2488C26.286 22.3458 26.1975 22.4494 26.1464 22.5596L25.7058 22.4022C25.7845 22.2186 25.8894 22.0757 26.0205 21.9735C26.153 21.8699 26.2972 21.7978 26.4532 21.7571C26.6106 21.7152 26.7653 21.6942 26.9174 21.6942C27.0144 21.6942 27.1258 21.706 27.2517 21.7296C27.3789 21.7519 27.5015 21.7984 27.6195 21.8692C27.7388 21.94 27.8378 22.0469 27.9165 22.1898C27.9951 22.3327 28.0345 22.5242 28.0345 22.7641V24.7545H27.5703V24.3454H27.5467C27.5153 24.4109 27.4628 24.4811 27.3894 24.5558C27.316 24.6305 27.2183 24.6941 27.0963 24.7466C26.9744 24.799 26.8256 24.8253 26.6499 24.8253ZM26.7207 24.4083C26.9043 24.4083 27.059 24.3722 27.1848 24.3001C27.312 24.228 27.4077 24.1349 27.472 24.0209C27.5375 23.9068 27.5703 23.7868 27.5703 23.6609V23.2361C27.5507 23.2597 27.5074 23.2814 27.4405 23.301C27.375 23.3194 27.2989 23.3358 27.2124 23.3502C27.1272 23.3633 27.0439 23.3751 26.9626 23.3856C26.8826 23.3948 26.8177 23.4026 26.7679 23.4092C26.6473 23.4249 26.5345 23.4505 26.4296 23.4859C26.326 23.52 26.2421 23.5718 26.1779 23.6413C26.1149 23.7095 26.0835 23.8025 26.0835 23.9205C26.0835 24.0818 26.1431 24.2038 26.2624 24.2864C26.3831 24.3677 26.5358 24.4083 26.7207 24.4083ZM31.7531 21.7335V22.1269H30.1876V21.7335H31.7531ZM30.6439 21.0097H31.108V23.8891C31.108 24.0202 31.127 24.1185 31.1651 24.1841C31.2044 24.2483 31.2542 24.2916 31.3145 24.3139C31.3762 24.3349 31.4411 24.3454 31.5093 24.3454C31.5604 24.3454 31.6023 24.3427 31.6351 24.3375C31.6679 24.3309 31.6941 24.3257 31.7138 24.3218L31.8082 24.7387C31.7767 24.7505 31.7328 24.7623 31.6764 24.7741C31.6201 24.7872 31.5486 24.7938 31.4621 24.7938C31.3309 24.7938 31.2024 24.7656 31.0766 24.7092C30.952 24.6528 30.8484 24.567 30.7658 24.4516C30.6845 24.3362 30.6439 24.1907 30.6439 24.015V21.0097ZM32.4513 24.7545V21.7335H32.8998V22.1898H32.9312C32.9863 22.0403 33.0859 21.919 33.2302 21.826C33.3744 21.7329 33.537 21.6863 33.7179 21.6863C33.752 21.6863 33.7946 21.687 33.8458 21.6883C33.8969 21.6896 33.9356 21.6916 33.9618 21.6942V22.1662C33.9461 22.1623 33.91 22.1564 33.8536 22.1485C33.7986 22.1393 33.7402 22.1347 33.6786 22.1347C33.5317 22.1347 33.4006 22.1655 33.2852 22.2272C33.1712 22.2875 33.0807 22.3714 33.0138 22.4789C32.9483 22.5851 32.9155 22.7064 32.9155 22.8428V24.7545H32.4513ZM34.512 24.7545V21.7335H34.9762V24.7545H34.512ZM34.748 21.23C34.6575 21.23 34.5795 21.1992 34.514 21.1376C34.4497 21.076 34.4176 21.0019 34.4176 20.9153C34.4176 20.8288 34.4497 20.7547 34.514 20.6931C34.5795 20.6315 34.6575 20.6007 34.748 20.6007C34.8385 20.6007 34.9158 20.6315 34.9801 20.6931C35.0457 20.7547 35.0784 20.8288 35.0784 20.9153C35.0784 21.0019 35.0457 21.076 34.9801 21.1376C34.9158 21.1992 34.8385 21.23 34.748 21.23ZM37.9661 22.4101L37.5492 22.5281C37.523 22.4586 37.4843 22.3911 37.4331 22.3255C37.3833 22.2586 37.3151 22.2036 37.2286 22.1603C37.1421 22.117 37.0313 22.0954 36.8962 22.0954C36.7113 22.0954 36.5573 22.138 36.434 22.2232C36.3121 22.3072 36.2511 22.414 36.2511 22.5438C36.2511 22.6592 36.2931 22.7503 36.377 22.8172C36.4609 22.8841 36.592 22.9398 36.7703 22.9844L37.2188 23.0945C37.4889 23.1601 37.6901 23.2604 37.8226 23.3954C37.955 23.5292 38.0212 23.7016 38.0212 23.9127C38.0212 24.0858 37.9714 24.2405 37.8717 24.3768C37.7734 24.5132 37.6357 24.6207 37.4587 24.6994C37.2817 24.7781 37.0758 24.8174 36.8411 24.8174C36.533 24.8174 36.278 24.7505 36.0761 24.6168C35.8742 24.483 35.7463 24.2877 35.6926 24.0307L36.1331 23.9205C36.1751 24.0831 36.2544 24.2051 36.3711 24.2864C36.4891 24.3677 36.6432 24.4083 36.8333 24.4083C37.0496 24.4083 37.2214 24.3624 37.3486 24.2706C37.4771 24.1775 37.5413 24.0661 37.5413 23.9363C37.5413 23.8314 37.5046 23.7435 37.4312 23.6727C37.3577 23.6006 37.245 23.5469 37.0929 23.5115L36.5894 23.3935C36.3127 23.3279 36.1095 23.2263 35.9797 23.0886C35.8512 22.9496 35.787 22.7759 35.787 22.5674C35.787 22.397 35.8348 22.2462 35.9305 22.1151C36.0276 21.9839 36.1593 21.881 36.3259 21.8063C36.4937 21.7315 36.6838 21.6942 36.8962 21.6942C37.1952 21.6942 37.4299 21.7597 37.6003 21.8909C37.7721 22.022 37.894 22.195 37.9661 22.4101ZM40.0337 21.7335V22.1269H38.4681V21.7335H40.0337ZM38.9244 21.0097H39.3886V23.8891C39.3886 24.0202 39.4076 24.1185 39.4456 24.1841C39.485 24.2483 39.5348 24.2916 39.5951 24.3139C39.6567 24.3349 39.7216 24.3454 39.7898 24.3454C39.8409 24.3454 39.8829 24.3427 39.9157 24.3375C39.9485 24.3309 39.9747 24.3257 39.9943 24.3218L40.0888 24.7387C40.0573 24.7505 40.0134 24.7623 39.957 24.7741C39.9006 24.7872 39.8291 24.7938 39.7426 24.7938C39.6115 24.7938 39.483 24.7656 39.3571 24.7092C39.2326 24.6528 39.129 24.567 39.0464 24.4516C38.9651 24.3362 38.9244 24.1907 38.9244 24.015V21.0097ZM40.7319 24.7545V21.7335H41.196V24.7545H40.7319ZM40.9679 21.23C40.8774 21.23 40.7994 21.1992 40.7339 21.1376C40.6696 21.076 40.6375 21.0019 40.6375 20.9153C40.6375 20.8288 40.6696 20.7547 40.7339 20.6931C40.7994 20.6315 40.8774 20.6007 40.9679 20.6007C41.0584 20.6007 41.1357 20.6315 41.2 20.6931C41.2655 20.7547 41.2983 20.8288 41.2983 20.9153C41.2983 21.0019 41.2655 21.076 41.2 21.1376C41.1357 21.1992 41.0584 21.23 40.9679 21.23ZM44.1073 25.8873V24.2903H44.068C44.0339 24.3454 43.9854 24.4149 43.9225 24.4988C43.8595 24.5814 43.7697 24.6555 43.653 24.721C43.5363 24.7853 43.3809 24.8174 43.1869 24.8174C42.9351 24.8174 42.7129 24.7538 42.5202 24.6266C42.3274 24.4981 42.1766 24.3172 42.0678 24.0838C41.959 23.8491 41.9046 23.5718 41.9046 23.2519C41.9046 22.9345 41.959 22.6592 42.0678 22.4258C42.1766 22.1924 42.3281 22.0121 42.5221 21.885C42.7162 21.7578 42.9404 21.6942 43.1948 21.6942C43.3914 21.6942 43.5468 21.727 43.6609 21.7925C43.7763 21.8568 43.8641 21.9302 43.9244 22.0128C43.9861 22.0941 44.0339 22.161 44.068 22.2134H44.1231V21.7335H44.5715V25.8873H44.1073ZM43.2498 24.4004C43.436 24.4004 43.5934 24.3519 43.7219 24.2549C43.8503 24.1566 43.948 24.0209 44.0149 23.8478C44.0818 23.6734 44.1152 23.4721 44.1152 23.244C44.1152 23.0185 44.0824 22.8211 44.0169 22.652C43.9513 22.4815 43.8543 22.3491 43.7258 22.2547C43.5973 22.159 43.4386 22.1111 43.2498 22.1111C43.0532 22.1111 42.8893 22.1616 42.7581 22.2626C42.6283 22.3622 42.5306 22.4979 42.4651 22.6697C42.4008 22.8401 42.3687 23.0316 42.3687 23.244C42.3687 23.459 42.4015 23.6544 42.4671 23.8301C42.5339 24.0045 42.6323 24.1434 42.7621 24.247C42.8932 24.3493 43.0558 24.4004 43.2498 24.4004ZM47.325 23.5193V21.7335H47.7891V24.7545H47.325V24.2431H47.2935C47.2227 24.3965 47.1125 24.527 46.9631 24.6345C46.8136 24.7407 46.6248 24.7938 46.3966 24.7938C46.2078 24.7938 46.04 24.7525 45.8932 24.6699C45.7463 24.586 45.6309 24.4601 45.547 24.2923C45.4631 24.1231 45.4211 23.9101 45.4211 23.6531V21.7335H45.8853V23.6216C45.8853 23.8419 45.9469 24.0176 46.0702 24.1487C46.1947 24.2798 46.3534 24.3454 46.5461 24.3454C46.6615 24.3454 46.7789 24.3159 46.8982 24.2569C47.0188 24.1979 47.1198 24.1074 47.201 23.9855C47.2837 23.8635 47.325 23.7081 47.325 23.5193ZM49.9058 24.8174C49.6148 24.8174 49.3637 24.7531 49.1526 24.6246C48.9428 24.4948 48.7808 24.3139 48.6668 24.0818C48.554 23.8484 48.4976 23.577 48.4976 23.2676C48.4976 22.9581 48.554 22.6854 48.6668 22.4494C48.7808 22.2121 48.9395 22.0272 49.1427 21.8948C49.3473 21.761 49.5859 21.6942 49.8586 21.6942C50.016 21.6942 50.1713 21.7204 50.3248 21.7728C50.4782 21.8253 50.6178 21.9105 50.7437 22.0285C50.8695 22.1452 50.9699 22.2999 51.0446 22.4927C51.1193 22.6854 51.1567 22.9227 51.1567 23.2046V23.4013H48.828V23.0001H50.6847C50.6847 22.8297 50.6506 22.6776 50.5824 22.5438C50.5155 22.4101 50.4198 22.3045 50.2953 22.2272C50.172 22.1498 50.0265 22.1111 49.8586 22.1111C49.6738 22.1111 49.5138 22.157 49.3787 22.2488C49.245 22.3393 49.1421 22.4573 49.07 22.6028C48.9978 22.7484 48.9618 22.9044 48.9618 23.0709V23.3384C48.9618 23.5665 49.0011 23.7599 49.0798 23.9186C49.1598 24.0759 49.2706 24.1959 49.4122 24.2785C49.5538 24.3598 49.7183 24.4004 49.9058 24.4004C50.0278 24.4004 50.1379 24.3834 50.2362 24.3493C50.3359 24.3139 50.4218 24.2615 50.4939 24.192C50.566 24.1212 50.6217 24.0333 50.6611 23.9284L51.1095 24.0543C51.0623 24.2064 50.983 24.3401 50.8715 24.4555C50.7601 24.5696 50.6224 24.6587 50.4585 24.723C50.2946 24.7859 50.1104 24.8174 49.9058 24.8174Z" fill="black"/>
<path d="M11.8196 15.4019H10.3788V11.1502H11.8487C12.2708 11.1502 12.6334 11.2353 12.9365 11.4055C13.241 11.5744 13.4749 11.8173 13.6382 12.1342C13.8015 12.4512 13.8832 12.8304 13.8832 13.2719C13.8832 13.7148 13.8009 14.0954 13.6362 14.4137C13.4728 14.732 13.2369 14.9763 12.9282 15.1466C12.621 15.3168 12.2514 15.4019 11.8196 15.4019ZM11.149 14.7355H11.7822C12.0784 14.7355 12.3255 14.6815 12.5234 14.5736C12.7213 14.4642 12.8701 14.3016 12.9697 14.0857C13.0694 13.8684 13.1192 13.5971 13.1192 13.2719C13.1192 12.9466 13.0694 12.6768 12.9697 12.4622C12.8701 12.2463 12.7227 12.0851 12.5275 11.9785C12.3338 11.8706 12.093 11.8166 11.8051 11.8166H11.149V14.7355ZM15.4994 15.4663C15.2973 15.4663 15.1153 15.4303 14.9534 15.3583C14.7929 15.285 14.6655 15.177 14.5714 15.0345C14.4787 14.8919 14.4323 14.7161 14.4323 14.5071C14.4323 14.3272 14.4655 14.1784 14.532 14.0608C14.5984 13.9431 14.6891 13.849 14.8039 13.7784C14.9188 13.7079 15.0482 13.6546 15.1922 13.6186C15.3375 13.5812 15.4876 13.5542 15.6427 13.5376C15.8295 13.5182 15.9811 13.5009 16.0973 13.4857C16.2136 13.4691 16.298 13.4442 16.3506 13.411C16.4046 13.3764 16.4316 13.3231 16.4316 13.2511V13.2387C16.4316 13.0823 16.3852 12.9612 16.2925 12.8754C16.1997 12.7896 16.0662 12.7466 15.8918 12.7466C15.7077 12.7466 15.5617 12.7868 15.4537 12.8671C15.3472 12.9473 15.2752 13.0421 15.2378 13.1515L14.5361 13.0518C14.5915 12.8581 14.6828 12.6961 14.8102 12.566C14.9375 12.4346 15.0932 12.3363 15.2773 12.2712C15.4613 12.2048 15.6648 12.1716 15.8876 12.1716C16.0413 12.1716 16.1942 12.1896 16.3464 12.2256C16.4987 12.2615 16.6378 12.3211 16.7637 12.4041C16.8897 12.4858 16.9907 12.5972 17.0668 12.7383C17.1443 12.8795 17.1831 13.056 17.1831 13.2677V15.4019H16.4606V14.9639H16.4357C16.39 15.0524 16.3257 15.1355 16.2426 15.213C16.161 15.2891 16.0579 15.3507 15.9333 15.3978C15.8101 15.4434 15.6655 15.4663 15.4994 15.4663ZM15.6946 14.914C15.8454 14.914 15.9762 14.8843 16.0869 14.8248C16.1977 14.7639 16.2828 14.6836 16.3423 14.584C16.4032 14.4843 16.4336 14.3757 16.4336 14.258V13.8822C16.4101 13.9016 16.37 13.9196 16.3132 13.9362C16.2579 13.9528 16.1956 13.9674 16.1264 13.9798C16.0572 13.9923 15.9887 14.0034 15.9208 14.013C15.853 14.0227 15.7942 14.031 15.7444 14.038C15.6323 14.0532 15.5319 14.0781 15.4434 14.1127C15.3548 14.1473 15.2849 14.1957 15.2337 14.258C15.1825 14.3189 15.1569 14.3978 15.1569 14.4947C15.1569 14.6331 15.2074 14.7376 15.3084 14.8082C15.4094 14.8788 15.5382 14.914 15.6946 14.914ZM19.5311 12.2131V12.7944H17.6979V12.2131H19.5311ZM18.1505 11.4491H18.9021V14.4428C18.9021 14.5438 18.9173 14.6213 18.9477 14.6753C18.9796 14.7279 19.0211 14.7639 19.0723 14.7833C19.1235 14.8026 19.1802 14.8123 19.2425 14.8123C19.2896 14.8123 19.3325 14.8089 19.3712 14.8019C19.4114 14.795 19.4418 14.7888 19.4626 14.7833L19.5892 15.3708C19.5491 15.3846 19.4917 15.3998 19.4169 15.4164C19.3436 15.4331 19.2536 15.4427 19.147 15.4455C18.9588 15.451 18.7893 15.4227 18.6384 15.3604C18.4875 15.2967 18.3678 15.1985 18.2792 15.0656C18.192 14.9327 18.1491 14.7666 18.1505 14.5673V11.4491ZM21.0772 15.4663C20.8752 15.4663 20.6932 15.4303 20.5312 15.3583C20.3707 15.285 20.2434 15.177 20.1492 15.0345C20.0565 14.8919 20.0101 14.7161 20.0101 14.5071C20.0101 14.3272 20.0434 14.1784 20.1098 14.0608C20.1762 13.9431 20.2669 13.849 20.3818 13.7784C20.4966 13.7079 20.626 13.6546 20.77 13.6186C20.9153 13.5812 21.0655 13.5542 21.2205 13.5376C21.4073 13.5182 21.5589 13.5009 21.6751 13.4857C21.7914 13.4691 21.8758 13.4442 21.9284 13.411C21.9824 13.3764 22.0094 13.3231 22.0094 13.2511V13.2387C22.0094 13.0823 21.963 12.9612 21.8703 12.8754C21.7776 12.7896 21.644 12.7466 21.4696 12.7466C21.2855 12.7466 21.1395 12.7868 21.0316 12.8671C20.925 12.9473 20.853 13.0421 20.8157 13.1515L20.1139 13.0518C20.1693 12.8581 20.2607 12.6961 20.388 12.566C20.5153 12.4346 20.671 12.3363 20.8551 12.2712C21.0392 12.2048 21.2426 12.1716 21.4655 12.1716C21.6191 12.1716 21.772 12.1896 21.9243 12.2256C22.0765 12.2615 22.2156 12.3211 22.3415 12.4041C22.4675 12.4858 22.5685 12.5972 22.6447 12.7383C22.7222 12.8795 22.7609 13.056 22.7609 13.2677V15.4019H22.0384V14.9639H22.0135C21.9679 15.0524 21.9035 15.1355 21.8205 15.213C21.7388 15.2891 21.6357 15.3507 21.5111 15.3978C21.3879 15.4434 21.2433 15.4663 21.0772 15.4663ZM21.2724 14.914C21.4232 14.914 21.554 14.8843 21.6648 14.8248C21.7755 14.7639 21.8606 14.6836 21.9201 14.584C21.981 14.4843 22.0115 14.3757 22.0115 14.258V13.8822C21.9879 13.9016 21.9478 13.9196 21.891 13.9362C21.8357 13.9528 21.7734 13.9674 21.7042 13.9798C21.635 13.9923 21.5665 14.0034 21.4987 14.013C21.4309 14.0227 21.372 14.031 21.3222 14.038C21.2101 14.0532 21.1098 14.0781 21.0212 14.1127C20.9326 14.1473 20.8627 14.1957 20.8115 14.258C20.7603 14.3189 20.7347 14.3978 20.7347 14.4947C20.7347 14.6331 20.7852 14.7376 20.8862 14.8082C20.9873 14.8788 21.116 14.914 21.2724 14.914ZM26.559 12.2131V12.7944H24.7259V12.2131H26.559ZM25.1785 11.4491H25.93V14.4428C25.93 14.5438 25.9452 14.6213 25.9757 14.6753C26.0075 14.7279 26.049 14.7639 26.1002 14.7833C26.1514 14.8026 26.2082 14.8123 26.2705 14.8123C26.3175 14.8123 26.3604 14.8089 26.3992 14.8019C26.4393 14.795 26.4698 14.7888 26.4905 14.7833L26.6172 15.3708C26.577 15.3846 26.5196 15.3998 26.4449 15.4164C26.3715 15.4331 26.2815 15.4427 26.175 15.4455C25.9867 15.451 25.8172 15.4227 25.6663 15.3604C25.5155 15.2967 25.3958 15.1985 25.3072 15.0656C25.22 14.9327 25.1771 14.7666 25.1785 14.5673V11.4491ZM27.1876 15.4019V12.2131H27.9163V12.7446H27.9495C28.0076 12.5605 28.1073 12.4186 28.2484 12.319C28.391 12.2179 28.5536 12.1674 28.7363 12.1674C28.7778 12.1674 28.8242 12.1695 28.8754 12.1737C28.928 12.1764 28.9716 12.1813 29.0062 12.1882V12.8795C28.9744 12.8684 28.9238 12.8588 28.8546 12.8505C28.7868 12.8408 28.7211 12.8359 28.6574 12.8359C28.5204 12.8359 28.3972 12.8657 28.2879 12.9252C28.1799 12.9833 28.0948 13.0643 28.0325 13.1681C27.9702 13.2719 27.9391 13.3916 27.9391 13.5272V15.4019H27.1876ZM30.366 15.4663C30.1639 15.4663 29.9819 15.4303 29.82 15.3583C29.6594 15.285 29.5321 15.177 29.438 15.0345C29.3453 14.8919 29.2989 14.7161 29.2989 14.5071C29.2989 14.3272 29.3321 14.1784 29.3986 14.0608C29.465 13.9431 29.5556 13.849 29.6705 13.7784C29.7854 13.7079 29.9148 13.6546 30.0587 13.6186C30.2041 13.5812 30.3542 13.5542 30.5092 13.5376C30.6961 13.5182 30.8476 13.5009 30.9639 13.4857C31.0802 13.4691 31.1646 13.4442 31.2172 13.411C31.2712 13.3764 31.2981 13.3231 31.2981 13.2511V13.2387C31.2981 13.0823 31.2518 12.9612 31.159 12.8754C31.0663 12.7896 30.9328 12.7466 30.7584 12.7466C30.5743 12.7466 30.4283 12.7868 30.3203 12.8671C30.2138 12.9473 30.1418 13.0421 30.1044 13.1515L29.4027 13.0518C29.4581 12.8581 29.5494 12.6961 29.6767 12.566C29.8041 12.4346 29.9598 12.3363 30.1439 12.2712C30.3279 12.2048 30.5314 12.1716 30.7542 12.1716C30.9078 12.1716 31.0608 12.1896 31.213 12.2256C31.3653 12.2615 31.5044 12.3211 31.6303 12.4041C31.7563 12.4858 31.8573 12.5972 31.9334 12.7383C32.0109 12.8795 32.0497 13.056 32.0497 13.2677V15.4019H31.3272V14.9639H31.3023C31.2566 15.0524 31.1923 15.1355 31.1092 15.213C31.0276 15.2891 30.9245 15.3507 30.7999 15.3978C30.6767 15.4434 30.5321 15.4663 30.366 15.4663ZM30.5611 14.914C30.712 14.914 30.8428 14.8843 30.9535 14.8248C31.0642 14.7639 31.1494 14.6836 31.2089 14.584C31.2698 14.4843 31.3002 14.3757 31.3002 14.258V13.8822C31.2767 13.9016 31.2366 13.9196 31.1798 13.9362C31.1244 13.9528 31.0622 13.9674 30.993 13.9798C30.9238 13.9923 30.8553 14.0034 30.7874 14.013C30.7196 14.0227 30.6608 14.031 30.611 14.038C30.4989 14.0532 30.3985 14.0781 30.3099 14.1127C30.2214 14.1473 30.1515 14.1957 30.1003 14.258C30.0491 14.3189 30.0234 14.3978 30.0234 14.4947C30.0234 14.6331 30.074 14.7376 30.175 14.8082C30.276 14.8788 30.4047 14.914 30.5611 14.914ZM33.5569 13.5335V15.4019H32.8054V12.2131H33.5237V12.755H33.561C33.6344 12.5764 33.7513 12.4346 33.9119 12.3294C34.0738 12.2242 34.2738 12.1716 34.5119 12.1716C34.7319 12.1716 34.9236 12.2186 35.0869 12.3128C35.2516 12.4069 35.379 12.5432 35.4689 12.7217C35.5603 12.9003 35.6053 13.1169 35.6039 13.3715V15.4019H34.8523V13.4878C34.8523 13.2747 34.797 13.1079 34.6863 12.9875C34.5769 12.8671 34.4254 12.8069 34.2316 12.8069C34.1001 12.8069 33.9832 12.8359 33.8807 12.894C33.7797 12.9508 33.7001 13.0331 33.642 13.1411C33.5853 13.2491 33.5569 13.3798 33.5569 13.5335ZM38.8882 13.056L38.2031 13.1307C38.1837 13.0615 38.1498 12.9965 38.1014 12.9356C38.0543 12.8747 37.9906 12.8255 37.9104 12.7882C37.8301 12.7508 37.7318 12.7321 37.6156 12.7321C37.4592 12.7321 37.3277 12.766 37.2211 12.8338C37.1159 12.9017 37.064 12.9895 37.0654 13.0975C37.064 13.1902 37.0979 13.2657 37.1671 13.3238C37.2377 13.3819 37.354 13.4297 37.5159 13.467L38.0598 13.5833C38.3616 13.6483 38.5858 13.7515 38.7325 13.8926C38.8806 14.0338 38.9553 14.2186 38.9567 14.4469C38.9553 14.6476 38.8965 14.8248 38.7802 14.9784C38.6653 15.1306 38.5055 15.2497 38.3007 15.3355C38.0958 15.4213 37.8605 15.4642 37.5948 15.4642C37.2045 15.4642 36.8903 15.3825 36.6523 15.2192C36.4142 15.0545 36.2724 14.8255 36.2267 14.5321L36.9595 14.4615C36.9927 14.6054 37.0633 14.7141 37.1713 14.7874C37.2792 14.8608 37.4197 14.8974 37.5927 14.8974C37.7713 14.8974 37.9145 14.8608 38.0225 14.7874C38.1318 14.7141 38.1865 14.6234 38.1865 14.5154C38.1865 14.4241 38.1512 14.3487 38.0806 14.2892C38.0114 14.2296 37.9034 14.184 37.7567 14.1521L37.2128 14.038C36.9069 13.9743 36.6806 13.867 36.5339 13.7162C36.3872 13.5639 36.3146 13.3715 36.316 13.139C36.3146 12.9425 36.3679 12.7723 36.4758 12.6283C36.5851 12.483 36.7367 12.3709 36.9305 12.292C37.1256 12.2117 37.3505 12.1716 37.6052 12.1716C37.9789 12.1716 38.273 12.2512 38.4875 12.4103C38.7034 12.5695 38.837 12.7847 38.8882 13.056ZM41.1916 12.2131V12.7944H39.3065V12.2131H41.1916ZM39.7778 15.4019V11.9121C39.7778 11.6976 39.8221 11.519 39.9106 11.3765C40.0006 11.2339 40.121 11.1273 40.2719 11.0567C40.4227 10.9862 40.5902 10.9509 40.7743 10.9509C40.9044 10.9509 41.0199 10.9612 41.121 10.982C41.222 11.0028 41.2967 11.0215 41.3452 11.0381L41.1957 11.6194C41.1639 11.6097 41.1237 11.6 41.0753 11.5903C41.0269 11.5792 40.9729 11.5737 40.9134 11.5737C40.7736 11.5737 40.6746 11.6076 40.6165 11.6754C40.5597 11.7418 40.5314 11.8373 40.5314 11.9619V15.4019H39.7778ZM43.0719 15.4642C42.7522 15.4642 42.4761 15.3978 42.2436 15.2649C42.0125 15.1306 41.8346 14.941 41.71 14.6961C41.5855 14.4497 41.5232 14.1597 41.5232 13.8262C41.5232 13.4982 41.5855 13.2103 41.71 12.9626C41.836 12.7134 42.0118 12.5197 42.2374 12.3813C42.463 12.2415 42.728 12.1716 43.0325 12.1716C43.229 12.1716 43.4145 12.2034 43.5889 12.2671C43.7646 12.3294 43.9197 12.4262 44.0539 12.5577C44.1895 12.6892 44.2961 12.8567 44.3736 13.0601C44.4511 13.2622 44.4899 13.503 44.4899 13.7826V14.013H41.8761V13.5065H43.7695C43.7681 13.3625 43.737 13.2345 43.6761 13.1224C43.6152 13.0089 43.53 12.9197 43.4207 12.8546C43.3128 12.7896 43.1868 12.757 43.0429 12.757C42.8892 12.757 42.7543 12.7944 42.638 12.8691C42.5218 12.9425 42.4311 13.0394 42.3661 13.1598C42.3024 13.2788 42.2699 13.4096 42.2685 13.5522V13.9944C42.2685 14.1798 42.3024 14.339 42.3702 14.4718C42.438 14.6033 42.5329 14.7044 42.6546 14.7749C42.7764 14.8442 42.919 14.8788 43.0823 14.8788C43.1917 14.8788 43.2906 14.8635 43.3792 14.8331C43.4678 14.8012 43.5446 14.7549 43.6096 14.694C43.6747 14.6331 43.7238 14.5577 43.757 14.4677L44.4587 14.5466C44.4144 14.732 44.33 14.894 44.2055 15.0324C44.0823 15.1694 43.9245 15.276 43.7321 15.3521C43.5397 15.4268 43.3197 15.4642 43.0719 15.4642ZM45.1257 15.4019V12.2131H45.8544V12.7446H45.8876C45.9457 12.5605 46.0454 12.4186 46.1865 12.319C46.3291 12.2179 46.4917 12.1674 46.6744 12.1674C46.7159 12.1674 46.7623 12.1695 46.8135 12.1737C46.8661 12.1764 46.9097 12.1813 46.9443 12.1882V12.8795C46.9125 12.8684 46.8619 12.8588 46.7927 12.8505C46.7249 12.8408 46.6592 12.8359 46.5955 12.8359C46.4585 12.8359 46.3353 12.8657 46.226 12.9252C46.118 12.9833 46.0329 13.0643 45.9706 13.1681C45.9083 13.2719 45.8772 13.3916 45.8772 13.5272V15.4019H45.1257Z" fill="#1D2125"/>
</g>
<defs>
<filter id="filter0_d_6_207" x="-33.9101" y="-31.6496" width="191.82" height="191.82" filterUnits="userSpaceOnUse" color-interpolation-filters="sRGB">
<feFlood flood-opacity="0" result="BackgroundImageFix"/>
<feColorMatrix in="SourceAlpha" type="matrix" values="0 0 0 0 0 0 0 0 0 0 0 0 0 0 0 0 0 0 127 0" result="hardAlpha"/>
<feOffset dy="2.26066"/>
<feGaussianBlur stdDeviation="16.9549"/>
<feComposite in2="hardAlpha" operator="out"/>
<feColorMatrix type="matrix" values="0 0 0 0 0 0 0 0 0 0 0 0 0 0 0 0 0 0 0.08 0"/>
<feBlend mode="normal" in2="BackgroundImageFix" result="effect1_dropShadow_6_207"/>
<feBlend mode="normal" in="SourceGraphic" in2="effect1_dropShadow_6_207" result="shape"/>
</filter>
<clipPath id="clip0_6_207">
<rect width="124" height="124" rx="7.60533" fill="white"/>
</clipPath>
</defs>
</svg>
